<svg xmlns:dc="http://purl.org/dc/elements/1.1/" xmlns:cc="http://creativecommons.org/ns#" xmlns:rdf="http://www.w3.org/1999/02/22-rdf-syntax-ns#" xmlns:svg="http://www.w3.org/2000/svg" xmlns="http://www.w3.org/2000/svg" xmlns:sodipodi="http://sodipodi.sourceforge.net/DTD/sodipodi-0.dtd" xmlns:inkscape="http://www.inkscape.org/namespaces/inkscape" version="1.1" x="0px" y="0px" viewBox="0 0 110 100"><g transform="translate(0,-952.36218)"><path id="previous-style-logo" style="text-indent:0;text-transform:none;direction:ltr;block-progression:tb;baseline-shift:baseline;color:#000000;enable-background:accumulate;" d="m 77.185951,980.37781 a 3.0003,3.0003 0 0 1 2.8125,3 l 0,37.99999 a 3.0003,3.0003 0 0 1 -4.53125,2.5625 l -17.468749,-10.3125 0,7.75 a 3.0003,3.0003 0 0 1 -4.53125,2.5625 l -32,-19 a 3.0003,3.0003 0 0 1 0,-5.15624 l 32,-19 a 3.0003,3.0003 0 0 1 4.53125,2.59375 l 0,7.71875 17.468749,-10.3125 a 3.0003,3.0003 0 0 1 1.71875,-0.40625 z m -3.1875,8.25 -17.468749,10.3125 a 3.0003,3.0003 0 0 1 -4.53125,-2.5625 l 0,-7.75 -23.125,13.74999 23.125,13.7188 0,-7.7188 a 3.0003,3.0003 0 0 1 4.53125,-2.5937 l 17.468749,10.3125 0,-27.46879 z" fill-opacity="1" stroke="none" marker="none" visibility="visible" display="inline" overflow="visible"/></g></svg>